<svg xmlns="http://www.w3.org/2000/svg" xmlns:xlink="http://www.w3.org/1999/xlink" width="500" zoomAndPan="magnify" viewBox="0 0 375 374.999991" height="500" preserveAspectRatio="xMidYMid meet" version="1.2"><defs/><g id="e60a294b4d"><rect x="0" width="375" y="0" height="374.999991" style="fill:#ffffff;fill-opacity:1;stroke:none;"/><rect x="0" width="375" y="0" height="374.999991" style="fill:#f9e7da;fill-opacity:1;stroke:none;"/><path style=" stroke:none;fill-rule:nonzero;fill:#502530;fill-opacity:1;" d="M 328.242188 162.003906 C 327.15625 155.222656 327.488281 148.253906 326.957031 141.402344 C 326.554688 136.269531 325.976562 124.304688 319.84375 122.21875 C 311.609375 119.429688 312.414062 132.53125 312.621094 137.421875 C 313.355469 154.988281 313.53125 171.644531 308.597656 188.746094 L 308.367188 188.746094 C 308.15625 189.75 307.933594 190.757812 307.695312 191.769531 C 306.675781 195.082031 305.515625 198.539062 304.203125 202.035156 C 301.191406 208.105469 296.304688 212.953125 287.488281 214.28125 L 287.433594 214.289062 L 287.375 214.304688 C 285.714844 214.675781 284.03125 214.863281 282.332031 214.867188 C 275.804688 214.867188 269.957031 211.90625 266.289062 206.734375 C 261.5 199.984375 261.792969 191.421875 267.039062 184.925781 C 270.488281 180.652344 275.351562 178.300781 280.734375 178.300781 C 285.613281 178.300781 290.152344 180.265625 292.871094 183.554688 C 296.199219 187.578125 296.277344 192.789062 293.105469 198.230469 C 289.75 203.980469 284.324219 204.601562 282.144531 204.601562 C 278.753906 204.601562 275.738281 203.234375 274.46875 201.121094 C 272.960938 198.609375 274.011719 195.46875 277.429688 192.277344 L 277.808594 191.921875 L 277.746094 191.464844 C 277.640625 190.683594 276.949219 188.660156 275.023438 188.660156 C 273.1875 188.660156 272.199219 190.5 271.410156 192.484375 C 268.804688 199.027344 270.402344 202.671875 272.203125 204.574219 C 274.164062 206.644531 277.367188 207.785156 281.226562 207.785156 C 287.308594 207.785156 293.4375 205.085938 296.132812 201.222656 C 300.644531 194.746094 300.601562 186.691406 296.019531 180.695312 C 292.71875 176.367188 287.617188 173.882812 282.03125 173.882812 C 277.175781 173.882812 272.144531 175.773438 267.429688 179.378906 C 260.078125 185.535156 256.011719 193.339844 256.539062 200.257812 C 256.964844 205.820312 260.292969 210.808594 266.15625 214.679688 L 266.207031 214.714844 L 266.261719 214.746094 C 272.472656 218.125 278.761719 219.839844 284.960938 219.839844 C 289.257812 219.847656 293.394531 219.03125 297.367188 217.398438 C 292.953125 225.730469 287.511719 233.332031 280.867188 238.578125 C 277.722656 241.0625 273.125 241.710938 270.199219 244.359375 C 268.21875 246.152344 266.777344 251.914062 266.078125 252.453125 C 265.9375 252.566406 264.785156 252.796875 263.097656 253.140625 C 263.6875 250.199219 260.863281 247.800781 259.378906 246.589844 C 257.519531 245.066406 258.195312 219.265625 257.6875 214.949219 C 257.179688 210.636719 250.75 199.386719 250.242188 193.972656 C 250.214844 193.699219 250.175781 193.40625 250.125 193.097656 C 250.195312 193.078125 250.257812 193.0625 250.328125 193.039062 C 256.5 191.09375 260.394531 184.75 262.339844 181.789062 C 264.285156 178.828125 268.851562 171.890625 271.898438 168.675781 C 274.941406 165.460938 279.558594 158.28125 282.207031 154.933594 C 284.851562 151.589844 289.207031 150.035156 286.640625 141.324219 C 285.402344 137.113281 278.269531 136.339844 271.253906 136.644531 C 277.992188 130.855469 283.171875 123.925781 286.8125 117.378906 C 293.355469 115.527344 299.316406 113.25 300.660156 113.011719 C 303.03125 112.585938 304.890625 115.464844 306.246094 116.140625 C 307.597656 116.816406 308.78125 117.15625 311.234375 118.761719 C 313.6875 120.371094 313.6875 118.761719 312.082031 117.15625 C 310.472656 115.546875 310.726562 113.941406 313.351562 115.210938 C 315.972656 116.480469 317.15625 117.578125 318.59375 119.523438 C 320.035156 121.46875 320.710938 120.371094 321.050781 120.117188 C 321.386719 119.863281 319.863281 117.15625 319.863281 117.15625 C 321.980469 117.492188 321.726562 115.800781 321.726562 115.800781 C 319.695312 115.71875 313.773438 111.574219 308.613281 109.289062 C 305.472656 107.894531 297.527344 108.546875 290.535156 109.550781 C 292.148438 105.46875 293.039062 101.863281 293.199219 99.222656 C 293.976562 86.519531 311.753906 55.605469 311.933594 55.296875 C 312.058594 55.085938 312.140625 54.863281 312.175781 54.625 C 312.214844 54.382812 312.203125 54.144531 312.144531 53.910156 C 312.085938 53.675781 311.984375 53.457031 311.839844 53.261719 C 311.695312 53.066406 311.519531 52.90625 311.3125 52.78125 C 311.105469 52.65625 310.878906 52.578125 310.640625 52.539062 C 310.398438 52.503906 310.160156 52.515625 309.925781 52.574219 C 309.691406 52.632812 309.476562 52.734375 309.28125 52.878906 C 309.085938 53.019531 308.925781 53.195312 308.796875 53.40625 C 305.21875 59.074219 286.339844 73.554688 271.640625 83.003906 C 258.222656 91.628906 246.582031 97.507812 238.128906 100.078125 C 237.898438 99.628906 237.707031 99.21875 237.550781 98.886719 C 236.703125 97.105469 238.140625 91.695312 241.1875 92.878906 C 244.230469 94.0625 245.246094 93.640625 246.34375 92.625 C 247.445312 91.613281 250.40625 86.367188 250.832031 85.097656 C 251.261719 83.828125 250.832031 81.628906 251.171875 81.292969 C 251.4375 81.023438 251.707031 81.492188 251.929688 78.753906 C 252.300781 79.613281 252.714844 80.601562 253.179688 81.757812 C 254.226562 84.375 252.265625 74.511719 252.738281 75.125 C 253.214844 75.734375 253.960938 78.714844 253.960938 78.714844 C 254.164062 77.96875 253.621094 73.496094 253.621094 73.496094 C 254.296875 73.835938 255.449219 77.5625 255.449219 77.5625 C 256.332031 75.867188 254.5 69.359375 254.5 69.359375 C 255.246094 69.632812 256.601562 72.207031 256.601562 72.207031 C 256.601562 68.34375 252.46875 64.957031 252.46875 64.957031 C 254.023438 63.941406 254.945312 59.917969 255.140625 58.984375 C 254.667969 60.828125 251.316406 62.789062 251.316406 62.789062 C 254.367188 57.703125 249.9375 54.382812 249.9375 54.382812 L 248.65625 60.171875 C 247.230469 54.167969 241.082031 53.027344 241.082031 53.027344 C 244.605469 54.992188 245.148438 58.652344 245.148438 58.652344 C 244.605469 57.570312 239.726562 54.859375 237.421875 54.246094 C 235.117188 53.636719 232.949219 52.214844 232.949219 52.214844 L 238.03125 56.957031 C 237.355469 56.824219 234.847656 57.027344 232.949219 57.027344 C 231.050781 57.027344 226.441406 54.71875 226.441406 54.71875 C 227.253906 56.074219 231.726562 59.261719 231.726562 59.261719 C 230.304688 59.195312 227.320312 60.753906 225.964844 61.089844 C 224.609375 61.429688 222.78125 60.957031 222.78125 60.957031 C 223.457031 61.90625 228 62.785156 228 62.785156 C 228 62.785156 226.304688 63.394531 225.152344 64.480469 C 224 65.566406 219.867188 66.175781 219.867188 66.175781 C 220.949219 66.921875 224.339844 66.582031 224.339844 66.582031 C 223.796875 67.191406 221.222656 68.886719 221.222656 68.886719 C 222.171875 69.222656 223.59375 68.277344 223.59375 68.277344 C 221.96875 69.835938 218.171875 71.730469 218.171875 71.730469 C 220.273438 73.019531 223.527344 70.917969 223.527344 70.917969 C 222.78125 71.394531 222.710938 74.035156 221.964844 75.054688 C 221.222656 76.070312 219.324219 77.359375 219.324219 77.359375 C 220.476562 78.035156 223.59375 76.746094 223.59375 76.746094 C 222.984375 78.371094 219.1875 79.457031 219.1875 79.457031 C 221.355469 80.539062 224.882812 78.980469 224.882812 78.980469 C 225.289062 80.742188 221.898438 83.320312 221.898438 83.320312 C 223.1875 83.859375 225.21875 82.300781 225.21875 82.300781 C 225.152344 83.453125 223.730469 86.84375 223.730469 86.84375 C 224.8125 86.570312 226.167969 85.011719 226.167969 85.011719 C 226.167969 86.367188 224.269531 90.097656 224.269531 90.097656 C 225.246094 90.097656 228.160156 87.378906 229.519531 86.058594 C 229.28125 86.921875 228.921875 87.949219 228.414062 89.238281 C 226.214844 94.820312 223.082031 92.03125 221.476562 89.660156 C 220.136719 87.6875 220.082031 84.132812 218.101562 81.335938 C 217.601562 77.082031 217.335938 72.207031 217.328125 66.742188 C 217.289062 50.65625 219.421875 34.992188 219.445312 34.835938 C 219.5 34.433594 219.429688 34.054688 219.230469 33.699219 C 219.035156 33.34375 218.75 33.082031 218.378906 32.917969 C 218.007812 32.75 217.621094 32.714844 217.226562 32.804688 C 216.828125 32.894531 216.5 33.09375 216.234375 33.40625 C 211.742188 38.703125 207.847656 43.914062 204.546875 49.035156 C 202.910156 45.058594 201.164062 38.691406 200.753906 37.046875 C 200.246094 35.015625 197.203125 29.09375 196.015625 26.554688 C 194.832031 24.019531 194.410156 23.679688 192.804688 22.75 C 192.394531 22.511719 191.941406 21.933594 191.476562 21.207031 C 194.6875 21.679688 197.917969 22.316406 201.066406 22.46875 C 212.269531 23.011719 218.609375 27.71875 229.003906 30.035156 C 241.6875 32.863281 250.246094 37.304688 260.9375 44.472656 C 266.277344 48.046875 271.726562 50.058594 276.402344 54.839844 C 278.363281 56.839844 279.472656 59.40625 281.652344 61.285156 C 282.417969 61.949219 288.183594 63.851562 288.699219 64.164062 C 286.5625 61.53125 287.992188 58.554688 286.476562 56.21875 C 285.085938 54.070312 281.996094 53.191406 280.113281 51.5625 C 277.226562 49.066406 275.089844 45.898438 271.726562 43.761719 C 262.6875 38.03125 254.078125 32.78125 244.433594 28.011719 C 241.308594 26.464844 238.246094 24.210938 235.058594 22.90625 C 232.28125 21.765625 230.3125 22.011719 227.050781 20.660156 C 223.699219 19.285156 221.066406 16.316406 218.160156 15.734375 C 217.945312 15.6875 213.457031 17.582031 212.488281 17.558594 C 209.902344 17.503906 206.617188 16.3125 204.132812 15.726562 C 204.191406 15.742188 204.210938 15.746094 204.132812 15.726562 L 204.101562 15.71875 L 204.132812 15.726562 C 190.828125 12.589844 173.617188 15.339844 160.695312 18.082031 C 153.289062 19.648438 145.816406 21.175781 138.5 23.0625 C 135.507812 23.835938 116.632812 34 116.632812 28.363281 C 109.277344 28.363281 95.242188 47.257812 89.542969 52.644531 C 86.578125 55.445312 83.75 58.394531 81.042969 61.445312 C 79.589844 63.085938 77.996094 66.320312 76.152344 67.277344 C 73.367188 68.714844 70.273438 66.484375 68.980469 67.019531 C 68.886719 67.0625 68.796875 67.109375 68.710938 67.160156 C 67.851562 67.011719 66.980469 66.875 66.097656 66.757812 C 61.578125 66.148438 57.789062 65.902344 54.636719 65.957031 C 54.449219 65.957031 44.476562 65.59375 43.402344 66.460938 C 37.5625 71.179688 41.042969 76.535156 42.066406 80.09375 C 42.90625 82.339844 44.113281 84.695312 45.488281 87.058594 C 51.367188 97.175781 52.640625 101.757812 54.480469 106.761719 C 52.734375 112.671875 50.734375 118.550781 48.832031 124.285156 C 45.503906 134.285156 45.710938 142.8125 46.214844 153.589844 C 46.476562 159.21875 46.613281 164.835938 47.296875 170.4375 C 47.933594 175.660156 46.9375 182.246094 47.882812 186.972656 C 48.734375 191.199219 53.113281 195.265625 54.796875 199.289062 C 55.539062 201.070312 56.085938 202.890625 56.632812 204.730469 C 56.800781 207.621094 57.210938 210.574219 57.859375 213.722656 L 57.914062 213.992188 L 58.097656 214.207031 C 59.429688 215.757812 60.863281 217.195312 62.410156 218.53125 C 64.125 221.722656 66 224.839844 67.90625 227.84375 C 71.742188 233.878906 77.152344 239.003906 80.84375 245.003906 C 82.511719 247.71875 82.222656 252.125 83.3125 253.859375 C 86.308594 258.632812 87.320312 254.773438 91.511719 256.613281 C 92.734375 257.152344 93.808594 257.90625 94.730469 258.875 C 94.773438 259.011719 94.824219 259.15625 94.882812 259.296875 C 95.167969 259.574219 95.46875 259.847656 95.773438 260.117188 C 95.996094 260.414062 96.210938 260.714844 96.414062 261.027344 C 96.457031 261.382812 96.472656 261.734375 96.460938 262.089844 C 97.328125 263.433594 97.859375 264.460938 98.203125 265.269531 C 98.1875 265.261719 98.523438 265.542969 99.046875 265.960938 C 99.511719 266.886719 99.984375 267.796875 100.507812 268.636719 C 104.988281 275.792969 109.96875 275.390625 118.480469 277.242188 C 129.339844 279.609375 139.441406 285.113281 150.253906 287.96875 C 159.109375 290.308594 167.210938 290.660156 175.652344 292.238281 C 181.609375 293.355469 188.527344 292.742188 194.542969 292.378906 C 199.941406 292.054688 205.246094 291.25 210.566406 290.320312 C 213.066406 289.882812 220.78125 289.25 223.183594 287.632812 C 224.472656 286.765625 226.777344 282.195312 226.714844 282.226562 C 229.855469 280.585938 233.222656 282.679688 236.445312 282.242188 C 239.59375 281.8125 242.125 279.914062 244.761719 279.34375 C 246.316406 279.007812 250.910156 279.445312 251.46875 279.289062 C 253.460938 278.730469 255.628906 276.023438 257.679688 275.398438 C 262.183594 274.023438 263.746094 276.828125 268.046875 271.945312 C 272.324219 267.085938 273.550781 261.660156 279.171875 257.855469 C 285.761719 253.394531 289.542969 250.574219 294.265625 243.128906 C 298.230469 236.878906 302.789062 233.199219 307.425781 227.761719 C 312.273438 222.082031 313.242188 214.808594 315.859375 208.355469 C 319.574219 199.21875 322.855469 189.199219 326.585938 180.3125 C 327.382812 178.414062 329.65625 177.558594 330.351562 175.023438 C 331.433594 171.082031 328.839844 165.757812 328.242188 162.003906 Z M 266.058594 154.886719 C 265.042969 155.730469 262.757812 160.386719 261.996094 163.769531 C 261.234375 167.152344 260.136719 172.90625 255.738281 172.398438 C 251.339844 171.890625 249.308594 174.34375 251.25 180.523438 C 252.515625 184.53125 250.355469 186.648438 248.683594 187.640625 C 246.765625 181.773438 243.628906 174.574219 242.203125 171.300781 C 241.445312 169.570312 241.570312 168.050781 242.019531 166.824219 C 250.613281 168.023438 258.527344 165.039062 258.527344 165.039062 C 257.511719 165.125 254.636719 159.203125 254.636719 159.203125 C 255.738281 159.964844 258.445312 158.949219 258.445312 158.949219 C 257.089844 159.203125 255.230469 156.15625 255.230469 156.15625 C 255.230469 156.15625 261.828125 154.550781 264.703125 153.875 C 267.578125 153.195312 267.074219 154.042969 266.058594 154.886719 Z M 273.613281 86.082031 C 284.457031 79.113281 295.167969 71.179688 302.605469 64.796875 C 297.175781 75.292969 290.058594 90.507812 289.539062 99.003906 C 289.320312 102.601562 288.164062 106.417969 286.457031 110.195312 C 283.652344 110.671875 281.253906 111.152344 279.757812 111.492188 C 274.175781 112.761719 266.054688 112.082031 263.769531 111.660156 C 261.484375 111.238281 249.390625 106.246094 244.734375 105.398438 C 243.0625 105.109375 241.613281 104.375 240.386719 103.199219 C 251.582031 99.550781 264.925781 91.671875 273.613281 86.082031 Z M 234.839844 124.941406 C 238.476562 119.527344 246.601562 116.398438 249.308594 116.484375 C 252.015625 116.566406 263.605469 119.359375 272.570312 119.78125 C 275.15625 119.902344 278.390625 119.425781 281.738281 118.675781 C 277.105469 125.730469 271.414062 131.832031 267.578125 134.941406 C 266.59375 135.738281 265.59375 136.496094 264.582031 137.210938 C 259.914062 137.773438 256.390625 138.503906 256.457031 138.449219 C 258.785156 136.300781 259.460938 130.613281 259.460938 130.613281 C 252.777344 138.566406 244.570312 135.351562 237.804688 132.558594 C 231.035156 129.765625 231.207031 130.355469 234.84375 124.941406 Z M 215.09375 40.589844 C 214.460938 46.734375 213.644531 56.640625 213.664062 66.722656 C 213.671875 70.246094 213.777344 73.53125 213.984375 76.578125 C 211.617188 72.921875 209.664062 67.785156 209.039062 64.796875 C 208.320312 61.34375 207.726562 56.25 206.417969 52.925781 C 208.921875 48.875 211.816406 44.761719 215.09375 40.589844 Z M 203.035156 70.039062 C 203.710938 71.5625 204.386719 75.199219 207.773438 82.390625 C 211.15625 89.582031 212 93.132812 212.425781 97.027344 C 212.847656 100.917969 206.25 108.445312 205.574219 117.75 C 205.320312 121.195312 205.511719 124.792969 205.960938 128.109375 C 200.582031 119.1875 196.015625 109.390625 194.597656 98.375 C 193.65625 91.109375 194.160156 83.742188 196.105469 76.210938 C 196.605469 76.167969 196.890625 76.144531 196.890625 76.144531 C 197.335938 76.109375 197.761719 76 198.171875 75.824219 C 198.585938 75.652344 198.957031 75.417969 199.292969 75.125 C 199.632812 74.828125 199.914062 74.492188 200.140625 74.105469 C 200.371094 73.722656 200.535156 73.3125 200.632812 72.878906 C 200.730469 72.441406 200.757812 72.003906 200.714844 71.558594 C 200.675781 71.113281 200.566406 70.6875 200.386719 70.277344 C 200.207031 69.867188 199.972656 69.496094 199.675781 69.160156 C 199.378906 68.828125 199.039062 68.546875 198.652344 68.320312 C 199.265625 66.730469 199.941406 65.136719 200.679688 63.53125 C 201.292969 65.761719 202.078125 67.933594 203.035156 70.039062 Z M 180.433594 31.507812 C 180.914062 28.644531 178.273438 26.179688 176.054688 24.875 C 180.105469 22.839844 177.527344 20.699219 185.261719 20.671875 C 185.527344 20.671875 185.792969 20.675781 186.058594 20.683594 C 186.570312 21.226562 187.125 21.71875 187.722656 22.160156 C 189.921875 23.769531 191.699219 26.136719 190.9375 26.558594 C 190.175781 26.984375 189.246094 25.96875 188.570312 25.289062 C 187.890625 24.613281 187.300781 23.597656 186.453125 24.445312 C 185.609375 25.289062 188.144531 27.40625 189.332031 29.351562 C 190.515625 31.296875 190.429688 31.296875 192.292969 32.820312 C 194.152344 34.34375 194.828125 35.441406 195.757812 37.726562 C 196.671875 39.96875 198.726562 51.421875 199.523438 57.605469 C 197.730469 60.992188 196.164062 64.480469 194.824219 68.070312 C 194.417969 68.25 194.050781 68.484375 193.714844 68.777344 C 193.382812 69.070312 193.105469 69.40625 192.878906 69.789062 C 192.652344 70.167969 192.488281 70.574219 192.390625 71.007812 C 192.292969 71.441406 192.261719 71.878906 192.304688 72.320312 C 192.324219 72.46875 192.351562 72.621094 192.390625 72.769531 C 190.402344 72.722656 188.390625 72.761719 186.398438 72.863281 C 184.394531 69.78125 182.972656 71.457031 182.183594 73.164062 C 173.371094 73.964844 165.582031 75.714844 162.71875 76.417969 L 162.59375 76.308594 C 159.484375 73.640625 154.339844 73.941406 150.199219 74.808594 C 143.683594 62.222656 137.167969 49.636719 130.652344 37.050781 C 130.128906 36.039062 129.105469 33.703125 129.019531 33.578125 C 128.53125 32.832031 127.996094 32.160156 127.496094 31.816406 C 144.886719 23.863281 162.902344 20.164062 180.433594 31.507812 Z M 164.441406 95.109375 C 162.816406 92.820312 160.863281 92.101562 159.171875 92.144531 L 158.488281 90.824219 C 160.273438 90.449219 162.730469 89.894531 165.753906 89.132812 C 169.335938 88.226562 169.828125 86.023438 168.605469 83.394531 C 169.417969 81.039062 171.269531 79.773438 174.6875 78.765625 C 174.957031 78.6875 175.304688 78.605469 175.714844 78.519531 C 177.53125 81.398438 177.65625 86.054688 177.65625 86.054688 C 178.015625 90.03125 171.085938 98.675781 166.785156 103.996094 C 162.484375 109.320312 161.453125 109.878906 159.132812 108.078125 C 158.765625 107.792969 157.988281 107.285156 156.949219 106.632812 C 161.351562 101.5 163.425781 102.105469 164.378906 101.285156 C 165.382812 100.421875 166.917969 98.589844 164.441406 95.109375 Z M 155.679688 97.132812 C 155.6875 98.238281 152.855469 100.808594 150.476562 102.710938 C 144.832031 99.355469 138.59375 95.746094 138.59375 95.746094 L 138.621094 95.667969 C 142.339844 95.617188 146.296875 94.894531 148.3125 92.398438 C 152.753906 86.90625 155.167969 91.46875 155.167969 91.46875 C 155.167969 91.46875 155.441406 91.421875 155.957031 91.328125 L 156.707031 92.78125 C 154.945312 93.8125 155.679688 97.132812 155.679688 97.132812 Z M 105.808594 46.039062 C 106.015625 45.351562 106.304688 44.707031 106.683594 44.097656 C 107.5625 42.761719 108.742188 41.792969 110.222656 41.1875 C 111.789062 40.542969 113.324219 40.390625 114.878906 40.859375 C 115.652344 41.09375 116.359375 41.457031 117 41.949219 C 117.640625 42.445312 118.171875 43.039062 118.589844 43.730469 C 118.992188 44.414062 119.261719 45.148438 119.40625 45.929688 C 119.53125 46.675781 119.496094 47.414062 119.292969 48.144531 C 118.90625 49.585938 117.867188 50.816406 116.621094 51.519531 C 116.011719 51.863281 115.367188 52.105469 114.6875 52.25 C 114.359375 52.308594 114.027344 52.339844 113.695312 52.34375 C 113.382812 52.34375 113.074219 52.316406 112.765625 52.261719 C 111.679688 52.058594 110.753906 51.5625 109.984375 50.769531 C 109.480469 50.257812 109.109375 49.664062 108.863281 48.988281 C 108.796875 48.8125 108.742188 48.632812 108.699219 48.445312 L 108.648438 48.257812 C 108.648438 48.257812 108.65625 48.324219 108.667969 48.453125 C 108.679688 48.644531 108.703125 48.832031 108.742188 49.019531 C 108.878906 49.761719 109.164062 50.441406 109.601562 51.054688 C 110.140625 51.863281 111.085938 52.730469 112.472656 53.234375 C 112.832031 53.355469 113.203125 53.449219 113.578125 53.511719 C 113.980469 53.570312 114.382812 53.59375 114.785156 53.589844 C 115.683594 53.554688 116.550781 53.378906 117.394531 53.0625 C 118.355469 52.695312 119.21875 52.164062 119.976562 51.46875 C 120.734375 50.769531 121.332031 49.953125 121.777344 49.023438 C 122.269531 47.980469 122.519531 46.886719 122.527344 45.730469 C 122.527344 44.546875 122.316406 43.398438 121.898438 42.289062 C 121.035156 40.035156 119.230469 37.976562 116.785156 36.765625 L 116.523438 36.632812 C 118.769531 35.863281 120.609375 35.15625 123.070312 33.929688 C 124.027344 33.457031 124.984375 32.992188 125.945312 32.539062 C 125.917969 32.617188 125.886719 32.691406 125.859375 32.785156 C 133.027344 46.632812 140.5625 61.566406 147.730469 75.417969 C 146.355469 75.796875 145.003906 76.25 143.675781 76.78125 C 143.675781 76.78125 145.71875 78.910156 143.632812 79.71875 C 141.546875 80.523438 138.808594 79.226562 135.152344 79.710938 C 133.527344 79.925781 132.5 80.390625 131.863281 80.84375 C 131.902344 80.703125 131.921875 80.617188 131.921875 80.617188 C 131.921875 80.617188 133.109375 77.457031 132.429688 75.726562 C 132.429688 75.726562 135.867188 75.3125 135.296875 74.835938 C 134.726562 74.359375 131.359375 70.875 132.003906 69.867188 C 132.652344 68.863281 134.339844 60.703125 129.820312 58.480469 C 126.753906 56.96875 121.6875 55.304688 117.246094 55.675781 C 117.246094 55.675781 117.246094 55.664062 117.242188 55.664062 C 117.425781 55.613281 115.265625 55.832031 114.964844 55.863281 C 114.660156 55.914062 114.214844 55.917969 113.636719 55.90625 C 111.933594 55.800781 110.398438 55.242188 109.03125 54.222656 C 108.089844 53.527344 107.328125 52.675781 106.738281 51.664062 C 106.121094 50.597656 105.664062 49.230469 105.59375 48.007812 C 105.582031 47.339844 105.652344 46.683594 105.808594 46.039062 Z M 79.890625 138.789062 C 79.050781 136.394531 77.292969 135.023438 75.550781 134.195312 C 75.550781 133.054688 75.488281 131.792969 75.367188 130.382812 C 75.191406 128.363281 78.996094 124.167969 82.355469 121.925781 L 106.824219 105.863281 C 108.679688 109.820312 111.222656 113.414062 114.25 117.058594 C 113.378906 119.867188 112.6875 123.832031 111.945312 129.609375 C 111.09375 136.199219 110.457031 143.460938 110.394531 146.105469 C 110.347656 148.328125 110.152344 149.53125 110.019531 150.101562 C 109.621094 150.464844 109.316406 150.78125 109.054688 151.0625 C 108.929688 151.199219 108.550781 151.605469 105.6875 153.453125 C 104.683594 154.105469 104.140625 154.402344 103.871094 154.535156 C 103.625 154.519531 103.269531 154.488281 102.964844 154.464844 C 101.851562 154.367188 100.328125 154.230469 98.1875 154.222656 C 97.34375 154.21875 96.496094 154.253906 95.667969 154.328125 C 93.789062 154.492188 91.960938 154.871094 90.171875 155.464844 C 88.679688 151.785156 85.820312 149.378906 83.492188 147.792969 C 83.574219 147.5 83.636719 147.203125 83.683594 146.902344 C 84.1875 143.664062 82.683594 140.527344 79.890625 138.789062 Z M 91.808594 57.074219 C 93.730469 55.15625 95.773438 53.363281 97.808594 51.5625 C 97.957031 52.714844 98.222656 53.835938 98.617188 54.929688 C 99.40625 57.136719 100.601562 59.097656 102.199219 60.808594 C 103.6875 62.414062 105.078125 63.417969 106.425781 65.023438 C 106.875 65.796875 107.554688 67.78125 108.285156 69.710938 C 108.53125 73.535156 109.664062 77.128906 111.519531 78.761719 C 112.023438 79.199219 112.550781 79.601562 113.101562 79.976562 L 112.566406 79.828125 C 113.085938 82.097656 112.90625 83.589844 106.917969 84.972656 C 106.753906 85.011719 106.59375 85.0625 106.441406 85.125 C 101.023438 80.40625 92.339844 74.214844 80.628906 70.191406 C 82.78125 65.527344 88.414062 60.464844 91.808594 57.074219 Z M 68.265625 81.746094 C 70.558594 79.84375 76.804688 81.320312 79.339844 78.238281 C 79.453125 78.097656 79.554688 77.960938 79.644531 77.828125 C 91.441406 82.207031 99.6875 88.945312 103.902344 92.992188 C 104 94.621094 104.191406 96.238281 104.476562 97.84375 L 75.617188 108.628906 C 73.332031 109.480469 71.242188 110 69.40625 110.167969 C 64.765625 110.585938 63.367188 108.753906 62.671875 107.113281 C 62.054688 105.65625 61.554688 104.289062 61.046875 102.878906 C 62.617188 96.21875 64.398438 84.957031 68.265625 81.746094 Z M 51.972656 83.296875 C 48.757812 77.757812 48.367188 75.289062 48.347656 74.492188 C 48.808594 74.253906 49.976562 73.792969 52.4375 73.578125 C 55.488281 73.300781 59.507812 73.480469 64.371094 74.101562 C 61.921875 79.9375 59.523438 88.203125 57.808594 94.53125 C 56.480469 91.539062 54.671875 87.941406 51.972656 83.292969 Z M 53.5 136.21875 C 54.390625 128.523438 55.976562 121.015625 57.992188 113.585938 C 60.566406 116.476562 64.570312 118.132812 70.082031 117.636719 C 72.507812 117.417969 75.226562 116.785156 78.242188 115.65625 C 78.242188 115.65625 67.195312 122.90625 67.898438 131.027344 C 68.597656 139.148438 66.632812 137.464844 67.046875 138.90625 C 67.460938 140.351562 72.664062 140.3125 72.859375 141.453125 C 73.050781 142.597656 72.5625 143.691406 73.167969 144.261719 C 73.769531 144.832031 76.441406 144.714844 76.277344 145.753906 C 76.117188 146.789062 71.816406 149.199219 76.347656 152.132812 C 80.882812 155.0625 86.285156 157.175781 82.328125 166.589844 C 79.175781 174.089844 77.917969 177 79.25 178.941406 C 75.558594 179.699219 72.277344 182.023438 69.996094 185.578125 C 66.09375 191.664062 66.058594 199.839844 69.902344 206.40625 C 72.199219 210.328125 77.421875 213.066406 82.601562 213.066406 C 85.890625 213.066406 88.621094 211.90625 90.289062 209.808594 C 91.820312 207.875 93.183594 204.183594 90.964844 197.542969 C 90.289062 195.53125 89.449219 193.664062 87.886719 193.664062 C 86.246094 193.664062 85.65625 195.71875 85.566406 196.507812 L 85.511719 196.972656 L 85.835938 197.332031 C 88.746094 200.570312 89.640625 203.757812 88.355469 206.308594 C 87.273438 208.453125 84.707031 209.835938 81.816406 209.835938 C 79.960938 209.835938 75.335938 209.207031 72.480469 203.375 C 69.773438 197.851562 69.84375 192.5625 72.675781 188.484375 C 75 185.144531 78.859375 183.148438 83.015625 183.148438 C 87.601562 183.148438 91.746094 185.539062 94.683594 189.875 C 99.152344 196.46875 99.40625 205.152344 95.324219 212.003906 C 92.195312 217.246094 87.214844 220.253906 81.652344 220.253906 C 80.195312 220.25 78.761719 220.058594 77.355469 219.679688 L 77.308594 219.667969 L 77.257812 219.660156 C 74.71875 219.203125 72.570312 218.332031 70.726562 217.152344 C 56.5625 193.007812 50.1875 164.8125 53.496094 136.21875 Z M 98.632812 250.800781 C 89.898438 243.171875 82.257812 234.574219 75.710938 225.003906 C 76.9375 225.199219 78.171875 225.300781 79.414062 225.304688 C 84.691406 225.304688 90.054688 223.5625 95.34375 220.132812 L 95.390625 220.101562 L 95.433594 220.070312 C 100.429688 216.140625 103.261719 211.078125 103.625 205.433594 C 104.074219 198.417969 100.609375 190.5 94.347656 184.25 C 91.277344 181.445312 88.042969 179.671875 84.839844 178.988281 C 85.09375 177.695312 85.179688 175.804688 85.117188 173.175781 C 84.953125 165.859375 90.304688 162.34375 96.34375 161.796875 C 96.9375 161.746094 97.539062 161.71875 98.148438 161.71875 C 101.722656 161.738281 103.273438 162.148438 104.742188 162.015625 C 106.039062 161.898438 107.265625 161.359375 109.753906 159.753906 C 115.058594 156.335938 113.914062 156.527344 115.546875 155.242188 C 117.179688 153.957031 117.800781 150.65625 117.898438 146.269531 C 117.964844 143.292969 119.023438 131.578125 120.367188 123.960938 C 120.910156 124.554688 121.460938 125.152344 122.023438 125.757812 C 129.375 133.726562 126.992188 142.5 126.992188 142.5 C 126.992188 142.5 121.421875 158.066406 118.566406 172.828125 C 117.617188 177.738281 114.855469 190.453125 114.855469 190.453125 C 114.855469 190.453125 108.964844 202.425781 104.308594 206.476562 C 104.308594 206.476562 108.402344 204.335938 111.171875 205.597656 C 108.539062 214.101562 105.304688 221.140625 101.351562 223.199219 C 103.792969 223.3125 106.214844 223.566406 108.625 223.953125 C 107.179688 227.328125 105.960938 230.785156 104.972656 234.324219 C 101.269531 247.59375 100.054688 249.148438 98.628906 250.800781 Z M 136.5625 270.191406 C 132.625 268.546875 129.058594 268.179688 125.441406 265.441406 C 122.695312 263.363281 118.609375 256.230469 116.457031 256.03125 C 115.113281 255.910156 114.335938 260.632812 111.53125 260.632812 C 110.023438 260.632812 107.40625 258.5 105.179688 256.511719 C 105.371094 255.632812 105.699219 254.8125 106.164062 254.046875 C 108.976562 249.386719 117.757812 234.34375 120.132812 228.109375 C 120.210938 227.894531 120.3125 227.664062 120.417969 227.425781 C 124.5625 229.527344 127.558594 232.664062 126.898438 237.351562 C 126.898438 237.351562 134.496094 234.992188 134.578125 226.617188 C 134.578125 226.617188 141.164062 231.601562 139.246094 238.191406 C 139.246094 238.191406 140.050781 237.15625 141.574219 235.933594 C 144.132812 243.929688 147.570312 256.058594 146.800781 258.316406 C 145.976562 260.734375 144.257812 269.800781 145.921875 271.855469 C 145.84375 271.859375 146.484375 272.722656 146.886719 273.144531 C 147.054688 273.320312 147.515625 273.734375 147.714844 273.941406 C 144.035156 272.933594 140.332031 271.769531 136.558594 270.191406 Z M 183.582031 278.632812 C 179.722656 282.402344 190.824219 284.21875 180.863281 284.511719 C 177.570312 284.609375 168.992188 279.726562 166.210938 278.847656 C 160.484375 277.03125 154.867188 275.832031 149.207031 274.339844 C 150.8125 274.265625 152.46875 273.035156 153.820312 272.453125 C 155.117188 271.894531 156.546875 271.699219 157.957031 271.773438 C 160.976562 271.933594 163.816406 273.140625 166.8125 273.355469 C 167.9375 273.4375 168.855469 273.402344 169.597656 272.496094 C 170.628906 271.226562 171.09375 269.3125 170.070312 267.976562 C 170.023438 267.914062 168.972656 268.054688 168.484375 268.183594 C 168.328125 268.171875 157.324219 267.839844 155.992188 264.101562 C 155.039062 261.425781 152.339844 239.898438 153.578125 232.441406 C 153.601562 232.316406 153.621094 232.179688 153.640625 232.039062 C 155.132812 232.144531 156.589844 232.425781 158.015625 232.875 C 158.015625 232.875 160.722656 213.386719 165.523438 220.207031 C 165.523438 220.207031 169.15625 204.816406 176.8125 224.765625 C 176.8125 224.765625 175.628906 220.773438 173.863281 214.746094 C 179.339844 216.746094 185.75 215.710938 190.628906 211.917969 C 193.816406 209.441406 195.640625 204.480469 195.066406 199.851562 C 194.703125 196.917969 193.382812 194.605469 191.351562 193.34375 C 189.488281 192.183594 186.089844 191.371094 180.511719 194.078125 C 178.820312 194.898438 177.273438 195.851562 177.449219 197.25 C 177.628906 198.714844 179.5 199.019531 180.203125 199.011719 L 180.617188 199.007812 L 180.898438 198.679688 C 183.414062 195.726562 186.113281 194.582031 188.492188 195.449219 C 190.496094 196.183594 191.996094 198.324219 192.316406 200.90625 C 192.519531 202.5625 192.480469 206.761719 187.679688 209.949219 C 183.132812 212.964844 178.484375 213.480469 174.589844 211.394531 C 173.8125 210.980469 173.097656 210.476562 172.441406 209.882812 C 171.894531 208.003906 171.316406 206.007812 170.714844 203.9375 C 169.605469 191.894531 175.699219 193.90625 175.699219 193.90625 C 174.945312 193.304688 174.164062 192.511719 173.378906 191.585938 C 174.023438 191.011719 174.707031 190.488281 175.429688 190.011719 C 176.148438 189.539062 176.902344 189.117188 177.683594 188.75 C 178.464844 188.382812 179.265625 188.074219 180.09375 187.820312 C 180.917969 187.570312 181.757812 187.378906 182.613281 187.246094 C 183.464844 187.113281 184.324219 187.042969 185.1875 187.035156 C 186.050781 187.027344 186.910156 187.082031 187.765625 187.195312 C 188.621094 187.3125 189.464844 187.488281 190.292969 187.722656 C 191.125 187.960938 191.933594 188.253906 192.722656 188.605469 C 197.675781 190.824219 200.863281 194.945312 201.480469 199.910156 C 201.636719 201.210938 201.628906 202.511719 201.453125 203.808594 L 201.449219 203.855469 L 201.449219 203.898438 C 201.25 207.792969 199.914062 210.847656 197.863281 213.304688 C 191.441406 214.597656 185.769531 217.726562 181.148438 222.460938 L 180.675781 222.605469 L 180.71875 222.898438 C 179.128906 224.59375 177.710938 226.417969 176.460938 228.375 L 176.417969 228.441406 L 176.378906 228.515625 C 172.007812 236.957031 170.328125 245.128906 171.382812 252.8125 C 172.710938 262.472656 178.242188 270.886719 187.839844 277.886719 C 186.28125 277.433594 184.800781 277.441406 183.578125 278.632812 Z M 250.324219 242.191406 C 250.203125 243.613281 249.761719 250.609375 250.128906 256.480469 C 245.644531 258.183594 243.203125 260.367188 248.285156 262.902344 C 243.550781 264.085938 241.589844 267.828125 237.210938 269.851562 C 233.320312 271.648438 228.925781 270.199219 225.394531 271.578125 C 223.820312 272.195312 222.75 271.320312 221.046875 272.375 C 220.195312 272.902344 220.023438 273.839844 219.992188 274.761719 C 203.21875 273.980469 186.25 270.832031 180.734375 254.710938 L 180.707031 254.640625 L 180.679688 254.574219 C 179.804688 252.613281 179.214844 250.574219 178.914062 248.449219 C 177.800781 240.359375 181.5625 232.460938 189.234375 226.785156 C 199.253906 219.363281 213.042969 217.839844 224.363281 222.90625 C 231.808594 226.238281 236.414062 231.742188 237.332031 238.414062 C 238.160156 244.457031 235.78125 250.511719 230.960938 254.609375 C 225.074219 259.613281 216.726562 260.867188 207.449219 258.132812 C 197.652344 255.242188 195.734375 248.65625 195.363281 245.957031 C 194.785156 241.753906 196.460938 237.71875 199.636719 235.679688 C 203.410156 233.257812 208.632812 233.863281 214.335938 237.398438 L 214.964844 237.785156 L 215.691406 237.609375 C 216.929688 237.308594 220.054688 236.003906 219.730469 233.617188 C 219.417969 231.34375 216.300781 230.523438 212.976562 229.980469 C 202.03125 228.195312 196.457031 230.980469 193.710938 233.628906 C 190.722656 236.511719 189.4375 240.734375 190.09375 245.515625 C 191.128906 253.050781 196.503906 260.050781 203.164062 262.539062 C 214.320312 266.703125 227.246094 264.871094 236.089844 257.875 C 242.46875 252.828125 245.582031 245.960938 244.632812 239.039062 C 243.804688 233.027344 239.917969 227.207031 233.328125 222.160156 C 224.347656 215.914062 214.007812 212.546875 204.570312 212.621094 C 206.089844 208.929688 206.628906 205.164062 206.152344 201.355469 C 205.566406 196.640625 203.445312 192.042969 199.847656 187.691406 L 199.816406 187.652344 L 199.78125 187.621094 C 195.777344 183.589844 191.023438 181.613281 186.027344 181.902344 C 181.035156 182.195312 175.804688 184.820312 171.457031 189.105469 C 167.421875 183.441406 163.445312 175.234375 161.382812 170.71875 C 159.644531 164.183594 158.5 159.414062 158.546875 158.351562 C 158.707031 154.5625 157.625 144.527344 157.566406 139.722656 C 157.597656 139.539062 157.609375 139.132812 157.578125 138.355469 C 157.449219 134.886719 150.117188 119.222656 150.480469 118.109375 C 150.84375 117 149.355469 114.203125 158.628906 119.535156 C 167.898438 124.867188 171.6875 113.886719 174.304688 108.714844 C 176.921875 103.542969 181.464844 90.644531 185.503906 84.109375 C 188.617188 79.074219 189.828125 79.429688 188.613281 76.898438 C 189.90625 76.769531 191.136719 76.652344 192.242188 76.554688 C 190.441406 84.09375 190.019531 91.507812 190.964844 98.84375 C 193.007812 114.664062 201.035156 127.839844 208.980469 139.527344 C 209.148438 139.867188 209.335938 140.191406 209.550781 140.507812 C 211.664062 143.550781 206.757812 145.414062 204.21875 148.882812 C 201.683594 152.347656 194.152344 157.425781 194.152344 157.425781 C 199.90625 155.734375 205.996094 160.21875 205.996094 160.21875 C 204.472656 164.699219 194.152344 179.589844 194.152344 179.589844 C 196.859375 179.421875 212.171875 171.554688 212.171875 171.554688 C 213.609375 174.515625 208.195312 186.105469 208.195312 186.105469 C 213.441406 185.003906 221.308594 177.222656 221.308594 177.222656 C 221.5625 185.347656 226.382812 190.164062 226.382812 190.164062 C 225.769531 187.367188 226.050781 184.652344 226.855469 182.117188 C 229.816406 187.246094 236.769531 196.277344 237.71875 198.375 C 238.902344 200.996094 238.226562 203.195312 241.355469 207.847656 C 244.484375 212.5 245.246094 217.574219 245.839844 222.992188 C 246.429688 228.40625 250.492188 240.246094 250.324219 242.191406 Z M 250.324219 242.191406 "/><g style="fill:#502530;fill-opacity:1;"><g transform="translate(8.05176, 335.268666)"><path style="stroke:none" d=""/></g></g><g style="fill:#502530;fill-opacity:1;"><g transform="translate(19.007321, 335.268666)"><path style="stroke:none" d=""/></g></g><g style="fill:#502530;fill-opacity:1;"><g transform="translate(29.962883, 335.268666)"><path style="stroke:none" d=""/></g></g><g style="fill:#502530;fill-opacity:1;"><g transform="translate(40.918444, 335.268666)"><path style="stroke:none" d=""/></g></g><g style="fill:#502530;fill-opacity:1;"><g transform="translate(51.874005, 335.268666)"><path style="stroke:none" d=""/></g></g><g style="fill:#502530;fill-opacity:1;"><g transform="translate(62.829566, 335.268666)"><path style="stroke:none" d=""/></g></g><g style="fill:#502530;fill-opacity:1;"><g transform="translate(73.800975, 335.268666)"><path style="stroke:none" d="M 10.109375 -3.984375 C 10.109375 -2.984375 10.21875 -2.253906 10.4375 -1.796875 C 10.65625 -1.347656 11.066406 -1.03125 11.671875 -0.84375 C 12.285156 -0.65625 13.265625 -0.5625 14.609375 -0.5625 C 14.703125 -0.5625 14.75 -0.46875 14.75 -0.28125 C 14.75 -0.09375 14.703125 0 14.609375 0 C 13.328125 0 12.328125 -0.015625 11.609375 -0.046875 L 7.546875 -0.09375 L 4.125 -0.046875 C 3.5 -0.015625 2.65625 0 1.59375 0 C 1.5 0 1.453125 -0.09375 1.453125 -0.28125 C 1.453125 -0.46875 1.5 -0.5625 1.59375 -0.5625 C 2.59375 -0.5625 3.316406 -0.640625 3.765625 -0.796875 C 4.222656 -0.953125 4.53125 -1.253906 4.6875 -1.703125 C 4.84375 -2.160156 4.921875 -2.859375 4.921875 -3.796875 L 4.921875 -25.46875 C 4.921875 -26.40625 4.84375 -27.09375 4.6875 -27.53125 C 4.53125 -27.96875 4.21875 -28.269531 3.75 -28.4375 C 3.28125 -28.613281 2.5625 -28.703125 1.59375 -28.703125 C 1.5 -28.703125 1.453125 -28.796875 1.453125 -28.984375 C 1.453125 -29.171875 1.5 -29.265625 1.59375 -29.265625 L 4.078125 -29.21875 C 5.515625 -29.15625 6.65625 -29.125 7.5 -29.125 C 8.238281 -29.125 9.125 -29.171875 10.15625 -29.265625 C 10.5625 -29.296875 11.078125 -29.328125 11.703125 -29.359375 C 12.328125 -29.390625 13.046875 -29.40625 13.859375 -29.40625 C 17.046875 -29.40625 19.554688 -28.738281 21.390625 -27.40625 C 23.234375 -26.082031 24.15625 -24.035156 24.15625 -21.265625 C 24.15625 -19.328125 23.65625 -17.6875 22.65625 -16.34375 C 21.664062 -15 20.378906 -13.984375 18.796875 -13.296875 C 17.222656 -12.609375 15.609375 -12.265625 13.953125 -12.265625 C 13.109375 -12.265625 12.375 -12.34375 11.75 -12.5 C 11.6875 -12.5 11.65625 -12.578125 11.65625 -12.734375 C 11.65625 -12.828125 11.675781 -12.921875 11.71875 -13.015625 C 11.769531 -13.109375 11.828125 -13.140625 11.890625 -13.109375 C 12.359375 -12.984375 12.890625 -12.921875 13.484375 -12.921875 C 14.921875 -12.921875 16.113281 -13.59375 17.0625 -14.9375 C 18.019531 -16.28125 18.5 -18.1875 18.5 -20.65625 C 18.5 -23.113281 17.972656 -25.015625 16.921875 -26.359375 C 15.878906 -27.703125 14.359375 -28.375 12.359375 -28.375 C 11.484375 -28.375 10.890625 -28.171875 10.578125 -27.765625 C 10.265625 -27.359375 10.109375 -26.5625 10.109375 -25.375 Z M 10.109375 -3.984375 "/></g></g><g style="fill:#502530;fill-opacity:1;"><g transform="translate(99.691699, 335.268666)"><path style="stroke:none" d="M 14 -18.546875 C 14.71875 -18.546875 15.410156 -18.285156 16.078125 -17.765625 C 16.753906 -17.253906 17.09375 -16.640625 17.09375 -15.921875 C 17.09375 -15.265625 16.890625 -14.722656 16.484375 -14.296875 C 16.078125 -13.878906 15.546875 -13.671875 14.890625 -13.671875 C 14.421875 -13.671875 14.035156 -13.765625 13.734375 -13.953125 C 13.441406 -14.140625 13.140625 -14.421875 12.828125 -14.796875 C 12.546875 -15.109375 12.300781 -15.332031 12.09375 -15.46875 C 11.894531 -15.613281 11.65625 -15.6875 11.375 -15.6875 C 11.0625 -15.6875 10.722656 -15.566406 10.359375 -15.328125 C 10.003906 -15.097656 9.453125 -14.609375 8.703125 -13.859375 L 8.703125 -3.796875 C 8.703125 -2.546875 9 -1.691406 9.59375 -1.234375 C 10.1875 -0.785156 11.28125 -0.5625 12.875 -0.5625 C 13 -0.5625 13.0625 -0.46875 13.0625 -0.28125 C 13.0625 -0.09375 13 0 12.875 0 C 11.78125 0 10.921875 -0.015625 10.296875 -0.046875 L 6.515625 -0.09375 L 3.75 -0.046875 C 3.28125 -0.015625 2.640625 0 1.828125 0 C 1.734375 0 1.6875 -0.09375 1.6875 -0.28125 C 1.6875 -0.46875 1.734375 -0.5625 1.828125 -0.5625 C 2.796875 -0.5625 3.453125 -0.785156 3.796875 -1.234375 C 4.140625 -1.691406 4.3125 -2.546875 4.3125 -3.796875 L 4.3125 -12.59375 C 4.3125 -13.5625 4.191406 -14.269531 3.953125 -14.71875 C 3.722656 -15.175781 3.359375 -15.40625 2.859375 -15.40625 C 2.328125 -15.40625 1.578125 -15.1875 0.609375 -14.75 L 0.515625 -14.75 C 0.421875 -14.75 0.347656 -14.828125 0.296875 -14.984375 C 0.253906 -15.140625 0.265625 -15.234375 0.328125 -15.265625 L 6.84375 -18.453125 C 7.03125 -18.515625 7.140625 -18.546875 7.171875 -18.546875 C 7.515625 -18.546875 7.832031 -18.222656 8.125 -17.578125 C 8.414062 -16.941406 8.59375 -16.078125 8.65625 -14.984375 C 9.9375 -16.296875 10.988281 -17.21875 11.8125 -17.75 C 12.644531 -18.28125 13.375 -18.546875 14 -18.546875 Z M 14 -18.546875 "/></g></g><g style="fill:#502530;fill-opacity:1;"><g transform="translate(117.435971, 335.268666)"><path style="stroke:none" d="M 11.09375 0.609375 C 9.15625 0.609375 7.460938 0.164062 6.015625 -0.71875 C 4.566406 -1.613281 3.453125 -2.816406 2.671875 -4.328125 C 1.890625 -5.847656 1.5 -7.492188 1.5 -9.265625 C 1.5 -11.296875 2.015625 -13.019531 3.046875 -14.4375 C 4.078125 -15.863281 5.382812 -16.925781 6.96875 -17.625 C 8.5625 -18.332031 10.203125 -18.6875 11.890625 -18.6875 C 13.828125 -18.6875 15.515625 -18.234375 16.953125 -17.328125 C 18.390625 -16.421875 19.488281 -15.222656 20.25 -13.734375 C 21.019531 -12.253906 21.40625 -10.671875 21.40625 -8.984375 C 21.40625 -7.117188 20.9375 -5.457031 20 -4 C 19.0625 -2.550781 17.800781 -1.421875 16.21875 -0.609375 C 14.644531 0.203125 12.9375 0.609375 11.09375 0.609375 Z M 12.5 -0.375 C 13.71875 -0.375 14.644531 -0.972656 15.28125 -2.171875 C 15.925781 -3.378906 16.25 -5.109375 16.25 -7.359375 C 16.25 -9.535156 15.96875 -11.40625 15.40625 -12.96875 C 14.84375 -14.53125 14.109375 -15.707031 13.203125 -16.5 C 12.296875 -17.300781 11.328125 -17.703125 10.296875 -17.703125 C 7.804688 -17.703125 6.5625 -15.46875 6.5625 -11 C 6.5625 -8.90625 6.820312 -7.054688 7.34375 -5.453125 C 7.875 -3.847656 8.59375 -2.597656 9.5 -1.703125 C 10.40625 -0.816406 11.40625 -0.375 12.5 -0.375 Z M 12.5 -0.375 "/></g></g><g style="fill:#502530;fill-opacity:1;"><g transform="translate(140.330302, 335.268666)"><path style="stroke:none" d="M 15.171875 -3.28125 C 15.296875 -3.28125 15.394531 -3.21875 15.46875 -3.09375 C 15.550781 -2.96875 15.546875 -2.875 15.453125 -2.8125 C 14.296875 -1.65625 13.171875 -0.800781 12.078125 -0.25 C 10.984375 0.289062 9.828125 0.5625 8.609375 0.5625 C 7.242188 0.5625 6.078125 0.234375 5.109375 -0.421875 C 4.140625 -1.078125 3.65625 -2.1875 3.65625 -3.75 L 3.65625 -14.140625 C 3.65625 -15.109375 3.484375 -15.78125 3.140625 -16.15625 C 2.796875 -16.53125 2.171875 -16.71875 1.265625 -16.71875 C 1.234375 -16.71875 1.191406 -16.765625 1.140625 -16.859375 C 1.097656 -16.953125 1.078125 -17.046875 1.078125 -17.140625 C 1.078125 -17.265625 1.09375 -17.363281 1.125 -17.4375 C 1.15625 -17.519531 1.203125 -17.5625 1.265625 -17.5625 C 2.859375 -17.625 4.144531 -17.96875 5.125 -18.59375 C 6.113281 -19.21875 6.875 -20.171875 7.40625 -21.453125 C 7.46875 -21.578125 7.597656 -21.640625 7.796875 -21.640625 C 7.992188 -21.640625 8.09375 -21.578125 8.09375 -21.453125 L 8.09375 -17.703125 C 9.90625 -17.734375 11.9375 -17.875 14.1875 -18.125 C 14.25 -18.125 14.316406 -18.003906 14.390625 -17.765625 C 14.472656 -17.535156 14.515625 -17.28125 14.515625 -17 C 14.515625 -16.6875 14.457031 -16.378906 14.34375 -16.078125 C 14.238281 -15.785156 14.125 -15.65625 14 -15.6875 C 11.96875 -16.125 10 -16.359375 8.09375 -16.390625 L 8.09375 -5.296875 C 8.09375 -4.109375 8.394531 -3.234375 9 -2.671875 C 9.613281 -2.109375 10.421875 -1.828125 11.421875 -1.828125 C 12.671875 -1.828125 13.890625 -2.296875 15.078125 -3.234375 Z M 15.171875 -3.28125 "/></g></g><g style="fill:#502530;fill-opacity:1;"><g transform="translate(156.061386, 335.268666)"><path style="stroke:none" d="M 19.625 -2.53125 C 19.75 -2.53125 19.832031 -2.457031 19.875 -2.3125 C 19.925781 -2.175781 19.890625 -2.078125 19.765625 -2.015625 L 14.9375 0.28125 C 14.8125 0.34375 14.65625 0.375 14.46875 0.375 C 13.96875 0.375 13.488281 0.109375 13.03125 -0.421875 C 12.582031 -0.953125 12.265625 -1.671875 12.078125 -2.578125 L 10.0625 -1.171875 C 9.34375 -0.640625 8.671875 -0.253906 8.046875 -0.015625 C 7.429688 0.210938 6.734375 0.328125 5.953125 0.328125 C 4.609375 0.328125 3.59375 0.03125 2.90625 -0.5625 C 2.21875 -1.15625 1.875 -1.984375 1.875 -3.046875 C 1.875 -3.890625 2.078125 -4.566406 2.484375 -5.078125 C 2.890625 -5.597656 3.394531 -6.003906 4 -6.296875 C 4.613281 -6.597656 5.46875 -6.9375 6.5625 -7.3125 L 7.734375 -7.734375 L 11.9375 -9.265625 L 11.9375 -11.9375 C 11.9375 -13.9375 11.769531 -15.390625 11.4375 -16.296875 C 11.113281 -17.203125 10.5625 -17.65625 9.78125 -17.65625 C 8.132812 -17.65625 7.203125 -16.375 6.984375 -13.8125 C 6.890625 -12.875 6.613281 -12.203125 6.15625 -11.796875 C 5.707031 -11.390625 5.078125 -11.1875 4.265625 -11.1875 C 3.484375 -11.1875 2.910156 -11.347656 2.546875 -11.671875 C 2.191406 -12.003906 2.015625 -12.4375 2.015625 -12.96875 C 2.015625 -13.90625 2.5625 -14.800781 3.65625 -15.65625 C 4.75 -16.519531 6.066406 -17.21875 7.609375 -17.75 C 9.148438 -18.28125 10.515625 -18.546875 11.703125 -18.546875 C 13.078125 -18.546875 14.191406 -18.113281 15.046875 -17.25 C 15.910156 -16.394531 16.34375 -15.09375 16.34375 -13.34375 L 16.34375 -5.0625 C 16.34375 -4.15625 16.503906 -3.453125 16.828125 -2.953125 C 17.160156 -2.453125 17.625 -2.203125 18.21875 -2.203125 C 18.65625 -2.203125 19.109375 -2.3125 19.578125 -2.53125 Z M 11.984375 -3.375 C 11.953125 -3.5 11.9375 -3.703125 11.9375 -3.984375 L 11.9375 -8.46875 L 9.921875 -7.546875 C 9.828125 -7.515625 9.515625 -7.394531 8.984375 -7.1875 C 8.453125 -6.988281 7.992188 -6.65625 7.609375 -6.1875 C 7.222656 -5.71875 7.03125 -5.171875 7.03125 -4.546875 C 7.03125 -3.796875 7.269531 -3.207031 7.75 -2.78125 C 8.226562 -2.363281 8.78125 -2.15625 9.40625 -2.15625 C 9.90625 -2.15625 10.421875 -2.328125 10.953125 -2.671875 Z M 11.984375 -3.375 "/></g></g><g style="fill:#502530;fill-opacity:1;"><g transform="translate(175.772053, 335.268666)"><path style="stroke:none" d="M 11.703125 -1.921875 C 13.546875 -1.890625 15.050781 -1.78125 16.21875 -1.59375 C 17.394531 -1.40625 18.378906 -0.941406 19.171875 -0.203125 C 19.972656 0.523438 20.375 1.640625 20.375 3.140625 C 20.375 4.890625 19.832031 6.535156 18.75 8.078125 C 17.675781 9.617188 16.222656 10.859375 14.390625 11.796875 C 12.566406 12.734375 10.609375 13.203125 8.515625 13.203125 C 6.367188 13.203125 4.609375 12.707031 3.234375 11.71875 C 1.859375 10.738281 1.171875 9.453125 1.171875 7.859375 C 1.171875 5.679688 2.75 3.5625 5.90625 1.5 C 3.65625 1.0625 2.53125 -0.0625 2.53125 -1.875 C 2.53125 -3.8125 3.625 -5.515625 5.8125 -6.984375 C 4.625 -7.535156 3.691406 -8.316406 3.015625 -9.328125 C 2.347656 -10.347656 2.015625 -11.421875 2.015625 -12.546875 C 2.015625 -13.796875 2.421875 -14.859375 3.234375 -15.734375 C 4.046875 -16.609375 5.082031 -17.269531 6.34375 -17.71875 C 7.601562 -18.175781 8.890625 -18.40625 10.203125 -18.40625 C 12.171875 -18.40625 13.859375 -17.90625 15.265625 -16.90625 C 16.890625 -18 18.578125 -18.546875 20.328125 -18.546875 C 20.578125 -18.546875 20.703125 -18.109375 20.703125 -17.234375 C 20.703125 -16.765625 20.640625 -16.269531 20.515625 -15.75 C 20.390625 -15.238281 20.265625 -15.03125 20.140625 -15.125 C 18.859375 -15.65625 17.703125 -15.921875 16.671875 -15.921875 L 16.296875 -15.921875 C 17.140625 -14.921875 17.5625 -13.796875 17.5625 -12.546875 C 17.5625 -11.296875 17.15625 -10.1875 16.34375 -9.21875 C 15.53125 -8.257812 14.488281 -7.519531 13.21875 -7 C 11.957031 -6.488281 10.65625 -6.234375 9.3125 -6.234375 C 8.34375 -6.234375 7.457031 -6.375 6.65625 -6.65625 C 6.15625 -6.125 5.90625 -5.453125 5.90625 -4.640625 C 5.90625 -3.796875 6.128906 -3.1875 6.578125 -2.8125 C 7.035156 -2.4375 7.632812 -2.203125 8.375 -2.109375 C 9.125 -2.015625 10.234375 -1.953125 11.703125 -1.921875 Z M 8.65625 -17.515625 C 7.257812 -17.515625 6.5625 -16.328125 6.5625 -13.953125 C 6.5625 -12.640625 6.75 -11.457031 7.125 -10.40625 C 7.5 -9.363281 7.988281 -8.546875 8.59375 -7.953125 C 9.195312 -7.367188 9.84375 -7.078125 10.53125 -7.078125 C 11.21875 -7.078125 11.796875 -7.414062 12.265625 -8.09375 C 12.734375 -8.78125 12.96875 -9.828125 12.96875 -11.234375 C 12.96875 -12.578125 12.75 -13.722656 12.3125 -14.671875 C 11.875 -15.628906 11.316406 -16.34375 10.640625 -16.8125 C 9.972656 -17.28125 9.3125 -17.515625 8.65625 -17.515625 Z M 11.328125 11.703125 C 12.921875 11.703125 14.1875 11.203125 15.125 10.203125 C 16.0625 9.203125 16.53125 7.847656 16.53125 6.140625 C 16.53125 4.796875 16.238281 3.816406 15.65625 3.203125 C 15.082031 2.597656 14.332031 2.222656 13.40625 2.078125 C 12.488281 1.941406 11.15625 1.859375 9.40625 1.828125 C 9.125 1.828125 8.734375 1.8125 8.234375 1.78125 C 7.742188 1.75 7.328125 1.71875 6.984375 1.6875 C 5.921875 2.46875 5.390625 3.71875 5.390625 5.4375 C 5.390625 7.425781 5.972656 8.96875 7.140625 10.0625 C 8.304688 11.15625 9.703125 11.703125 11.328125 11.703125 Z M 11.328125 11.703125 "/></g></g><g style="fill:#502530;fill-opacity:1;"><g transform="translate(196.887274, 335.268666)"><path style="stroke:none" d="M 11.09375 0.609375 C 9.15625 0.609375 7.460938 0.164062 6.015625 -0.71875 C 4.566406 -1.613281 3.453125 -2.816406 2.671875 -4.328125 C 1.890625 -5.847656 1.5 -7.492188 1.5 -9.265625 C 1.5 -11.296875 2.015625 -13.019531 3.046875 -14.4375 C 4.078125 -15.863281 5.382812 -16.925781 6.96875 -17.625 C 8.5625 -18.332031 10.203125 -18.6875 11.890625 -18.6875 C 13.828125 -18.6875 15.515625 -18.234375 16.953125 -17.328125 C 18.390625 -16.421875 19.488281 -15.222656 20.25 -13.734375 C 21.019531 -12.253906 21.40625 -10.671875 21.40625 -8.984375 C 21.40625 -7.117188 20.9375 -5.457031 20 -4 C 19.0625 -2.550781 17.800781 -1.421875 16.21875 -0.609375 C 14.644531 0.203125 12.9375 0.609375 11.09375 0.609375 Z M 12.5 -0.375 C 13.71875 -0.375 14.644531 -0.972656 15.28125 -2.171875 C 15.925781 -3.378906 16.25 -5.109375 16.25 -7.359375 C 16.25 -9.535156 15.96875 -11.40625 15.40625 -12.96875 C 14.84375 -14.53125 14.109375 -15.707031 13.203125 -16.5 C 12.296875 -17.300781 11.328125 -17.703125 10.296875 -17.703125 C 7.804688 -17.703125 6.5625 -15.46875 6.5625 -11 C 6.5625 -8.90625 6.820312 -7.054688 7.34375 -5.453125 C 7.875 -3.847656 8.59375 -2.597656 9.5 -1.703125 C 10.40625 -0.816406 11.40625 -0.375 12.5 -0.375 Z M 12.5 -0.375 "/></g></g><g style="fill:#502530;fill-opacity:1;"><g transform="translate(219.781604, 335.268666)"><path style="stroke:none" d="M 23.828125 -0.5625 C 23.921875 -0.5625 23.96875 -0.46875 23.96875 -0.28125 C 23.96875 -0.09375 23.921875 0 23.828125 0 C 23.023438 0 22.390625 -0.015625 21.921875 -0.046875 L 19.109375 -0.09375 L 16.390625 -0.046875 C 15.890625 -0.015625 15.234375 0 14.421875 0 C 14.328125 0 14.28125 -0.09375 14.28125 -0.28125 C 14.28125 -0.46875 14.328125 -0.5625 14.421875 -0.5625 C 15.390625 -0.5625 16.046875 -0.785156 16.390625 -1.234375 C 16.734375 -1.691406 16.90625 -2.546875 16.90625 -3.796875 L 16.90625 -10.53125 C 16.90625 -12.21875 16.597656 -13.46875 15.984375 -14.28125 C 15.378906 -15.09375 14.421875 -15.5 13.109375 -15.5 C 12.359375 -15.5 11.582031 -15.34375 10.78125 -15.03125 C 9.988281 -14.71875 9.296875 -14.296875 8.703125 -13.765625 L 8.703125 -3.796875 C 8.703125 -2.546875 8.878906 -1.691406 9.234375 -1.234375 C 9.597656 -0.785156 10.265625 -0.5625 11.234375 -0.5625 C 11.328125 -0.5625 11.375 -0.46875 11.375 -0.28125 C 11.375 -0.09375 11.328125 0 11.234375 0 C 10.421875 0 9.78125 -0.015625 9.3125 -0.046875 L 6.515625 -0.09375 L 3.75 -0.046875 C 3.28125 -0.015625 2.640625 0 1.828125 0 C 1.734375 0 1.6875 -0.09375 1.6875 -0.28125 C 1.6875 -0.46875 1.734375 -0.5625 1.828125 -0.5625 C 2.796875 -0.5625 3.453125 -0.785156 3.796875 -1.234375 C 4.140625 -1.691406 4.3125 -2.546875 4.3125 -3.796875 L 4.3125 -12.59375 C 4.3125 -13.5625 4.191406 -14.269531 3.953125 -14.71875 C 3.722656 -15.175781 3.359375 -15.40625 2.859375 -15.40625 C 2.328125 -15.40625 1.578125 -15.1875 0.609375 -14.75 L 0.515625 -14.75 C 0.421875 -14.75 0.347656 -14.828125 0.296875 -14.984375 C 0.253906 -15.140625 0.265625 -15.234375 0.328125 -15.265625 L 6.84375 -18.453125 C 7.03125 -18.515625 7.140625 -18.546875 7.171875 -18.546875 C 7.515625 -18.546875 7.835938 -18.207031 8.140625 -17.53125 C 8.453125 -16.863281 8.640625 -15.953125 8.703125 -14.796875 C 10.859375 -17.359375 13.234375 -18.640625 15.828125 -18.640625 C 17.515625 -18.640625 18.847656 -18.097656 19.828125 -17.015625 C 20.816406 -15.941406 21.3125 -14.53125 21.3125 -12.78125 L 21.3125 -3.796875 C 21.3125 -2.546875 21.488281 -1.691406 21.84375 -1.234375 C 22.207031 -0.785156 22.867188 -0.5625 23.828125 -0.5625 Z M 23.828125 -0.5625 "/></g></g><g style="fill:#502530;fill-opacity:1;"><g transform="translate(244.408231, 335.268666)"><path style="stroke:none" d="M 6.328125 -23.1875 C 5.421875 -23.1875 4.71875 -23.429688 4.21875 -23.921875 C 3.71875 -24.421875 3.46875 -25.125 3.46875 -26.03125 C 3.46875 -26.84375 3.722656 -27.488281 4.234375 -27.96875 C 4.753906 -28.457031 5.453125 -28.703125 6.328125 -28.703125 C 7.203125 -28.703125 7.867188 -28.46875 8.328125 -28 C 8.796875 -27.53125 9.03125 -26.875 9.03125 -26.03125 C 9.03125 -25.125 8.796875 -24.421875 8.328125 -23.921875 C 7.867188 -23.429688 7.203125 -23.1875 6.328125 -23.1875 Z M 1.828125 0 C 1.734375 0 1.6875 -0.09375 1.6875 -0.28125 C 1.6875 -0.46875 1.734375 -0.5625 1.828125 -0.5625 C 2.796875 -0.5625 3.453125 -0.785156 3.796875 -1.234375 C 4.140625 -1.691406 4.3125 -2.546875 4.3125 -3.796875 L 4.3125 -12.171875 C 4.3125 -13.234375 4.203125 -14 3.984375 -14.46875 C 3.765625 -14.9375 3.40625 -15.171875 2.90625 -15.171875 C 2.5 -15.171875 1.921875 -15 1.171875 -14.65625 L 1.125 -14.65625 C 1 -14.65625 0.90625 -14.738281 0.84375 -14.90625 C 0.78125 -15.082031 0.796875 -15.1875 0.890625 -15.21875 L 7.953125 -18.5 L 8.09375 -18.546875 C 8.25 -18.546875 8.40625 -18.46875 8.5625 -18.3125 C 8.71875 -18.15625 8.796875 -18.015625 8.796875 -17.890625 L 8.796875 -16.859375 C 8.734375 -15.609375 8.703125 -14.078125 8.703125 -12.265625 L 8.703125 -3.796875 C 8.703125 -2.546875 8.878906 -1.691406 9.234375 -1.234375 C 9.597656 -0.785156 10.265625 -0.5625 11.234375 -0.5625 C 11.328125 -0.5625 11.375 -0.46875 11.375 -0.28125 C 11.375 -0.09375 11.328125 0 11.234375 0 C 10.421875 0 9.78125 -0.015625 9.3125 -0.046875 L 6.515625 -0.09375 L 3.75 -0.046875 C 3.28125 -0.015625 2.640625 0 1.828125 0 Z M 1.828125 0 "/></g></g><g style="fill:#502530;fill-opacity:1;"><g transform="translate(256.721534, 335.268666)"><path style="stroke:none" d="M 4.921875 0.515625 C 4.046875 0.515625 3.347656 0.257812 2.828125 -0.25 C 2.316406 -0.769531 2.0625 -1.46875 2.0625 -2.34375 C 2.0625 -3.15625 2.316406 -3.8125 2.828125 -4.3125 C 3.347656 -4.8125 4.046875 -5.0625 4.921875 -5.0625 C 5.796875 -5.0625 6.472656 -4.816406 6.953125 -4.328125 C 7.441406 -3.847656 7.6875 -3.1875 7.6875 -2.34375 C 7.6875 -1.4375 7.441406 -0.734375 6.953125 -0.234375 C 6.472656 0.265625 5.796875 0.515625 4.921875 0.515625 Z M 4.921875 0.515625 "/></g></g><g style="fill:#502530;fill-opacity:1;"><g transform="translate(266.412997, 335.268666)"><path style="stroke:none" d="M 5.53125 -15.828125 C 5.53125 -14.921875 5.847656 -14.140625 6.484375 -13.484375 C 7.128906 -12.828125 8.054688 -12.140625 9.265625 -11.421875 C 10.453125 -10.734375 11.332031 -10.191406 11.90625 -9.796875 C 12.488281 -9.410156 13.015625 -8.867188 13.484375 -8.171875 C 13.953125 -7.472656 14.1875 -6.625 14.1875 -5.625 C 14.1875 -4.5625 13.921875 -3.5625 13.390625 -2.625 C 12.859375 -1.6875 12.0625 -0.925781 11 -0.34375 C 9.9375 0.226562 8.675781 0.515625 7.21875 0.515625 C 5.5 0.515625 3.875 0.09375 2.34375 -0.75 C 2.15625 -0.9375 2.0625 -1.125 2.0625 -1.3125 L 1.96875 -5.953125 C 1.96875 -6.046875 2.050781 -6.097656 2.21875 -6.109375 C 2.394531 -6.128906 2.5 -6.109375 2.53125 -6.046875 C 3.03125 -4.484375 3.859375 -3.15625 5.015625 -2.0625 C 6.171875 -0.96875 7.335938 -0.421875 8.515625 -0.421875 C 9.171875 -0.421875 9.691406 -0.625 10.078125 -1.03125 C 10.472656 -1.4375 10.671875 -2.03125 10.671875 -2.8125 C 10.671875 -3.96875 10.34375 -4.878906 9.6875 -5.546875 C 9.03125 -6.222656 8.066406 -6.921875 6.796875 -7.640625 C 5.703125 -8.222656 4.875 -8.703125 4.3125 -9.078125 C 3.75 -9.453125 3.25 -9.984375 2.8125 -10.671875 C 2.375 -11.359375 2.15625 -12.203125 2.15625 -13.203125 C 2.15625 -15.046875 2.8125 -16.394531 4.125 -17.25 C 5.4375 -18.113281 7.039062 -18.546875 8.9375 -18.546875 C 9.65625 -18.546875 10.300781 -18.5 10.875 -18.40625 C 11.457031 -18.3125 12.109375 -18.125 12.828125 -17.84375 C 13.109375 -17.75 13.25 -17.578125 13.25 -17.328125 C 13.25 -16.546875 13.234375 -15.9375 13.203125 -15.5 L 13.15625 -13.15625 C 13.15625 -13.0625 13.0625 -13.015625 12.875 -13.015625 C 12.6875 -13.015625 12.59375 -13.0625 12.59375 -13.15625 C 12.59375 -13.75 12.34375 -14.394531 11.84375 -15.09375 C 11.34375 -15.800781 10.691406 -16.40625 9.890625 -16.90625 C 9.097656 -17.40625 8.285156 -17.65625 7.453125 -17.65625 C 6.171875 -17.65625 5.53125 -17.046875 5.53125 -15.828125 Z M 5.53125 -15.828125 "/></g></g><g style="fill:#502530;fill-opacity:1;"><g transform="translate(282.190893, 335.268666)"><path style="stroke:none" d="M 15.171875 -3.28125 C 15.296875 -3.28125 15.394531 -3.21875 15.46875 -3.09375 C 15.550781 -2.96875 15.546875 -2.875 15.453125 -2.8125 C 14.296875 -1.65625 13.171875 -0.800781 12.078125 -0.25 C 10.984375 0.289062 9.828125 0.5625 8.609375 0.5625 C 7.242188 0.5625 6.078125 0.234375 5.109375 -0.421875 C 4.140625 -1.078125 3.65625 -2.1875 3.65625 -3.75 L 3.65625 -14.140625 C 3.65625 -15.109375 3.484375 -15.78125 3.140625 -16.15625 C 2.796875 -16.53125 2.171875 -16.71875 1.265625 -16.71875 C 1.234375 -16.71875 1.191406 -16.765625 1.140625 -16.859375 C 1.097656 -16.953125 1.078125 -17.046875 1.078125 -17.140625 C 1.078125 -17.265625 1.09375 -17.363281 1.125 -17.4375 C 1.15625 -17.519531 1.203125 -17.5625 1.265625 -17.5625 C 2.859375 -17.625 4.144531 -17.96875 5.125 -18.59375 C 6.113281 -19.21875 6.875 -20.171875 7.40625 -21.453125 C 7.46875 -21.578125 7.597656 -21.640625 7.796875 -21.640625 C 7.992188 -21.640625 8.09375 -21.578125 8.09375 -21.453125 L 8.09375 -17.703125 C 9.90625 -17.734375 11.9375 -17.875 14.1875 -18.125 C 14.25 -18.125 14.316406 -18.003906 14.390625 -17.765625 C 14.472656 -17.535156 14.515625 -17.28125 14.515625 -17 C 14.515625 -16.6875 14.457031 -16.378906 14.34375 -16.078125 C 14.238281 -15.785156 14.125 -15.65625 14 -15.6875 C 11.96875 -16.125 10 -16.359375 8.09375 -16.390625 L 8.09375 -5.296875 C 8.09375 -4.109375 8.394531 -3.234375 9 -2.671875 C 9.613281 -2.109375 10.421875 -1.828125 11.421875 -1.828125 C 12.671875 -1.828125 13.890625 -2.296875 15.078125 -3.234375 Z M 15.171875 -3.28125 "/></g></g></g></svg>